<svg width="20" height="21" viewBox="0 0 20 21" fill="none" xmlns="http://www.w3.org/2000/svg">
<rect x="0.5" y="1.45264" width="19" height="19" rx="3.5" fill="#00A896"/>
<path fill-rule="evenodd" clip-rule="evenodd" d="M16.707 6.24568C16.8946 6.43338 17 6.68792 17 6.95332C17 7.21872 16.8946 7.47325 16.707 7.66095L8.6998 15.6681C8.51211 15.8557 8.25757 15.9611 7.99217 15.9611C7.72677 15.9611 7.47223 15.8557 7.28454 15.6681L3.28096 11.6645C3.09864 11.4758 2.99776 11.2229 3.00004 10.9605C3.00232 10.6981 3.10758 10.447 3.29316 10.2615C3.47873 10.0759 3.72977 9.97061 3.9922 9.96833C4.25463 9.96605 4.50746 10.0669 4.69623 10.2493L7.99217 13.5452L15.2917 6.24568C15.4794 6.05805 15.7339 5.95264 15.9993 5.95264C16.2647 5.95264 16.5193 6.05805 16.707 6.24568Z" fill="white"/>
<rect x="0.5" y="1.45264" width="19" height="19" rx="3.5" stroke="#00A896"/>
</svg>
