<svg width="68" height="67" viewBox="0 0 68 67" fill="none" xmlns="http://www.w3.org/2000/svg">
<rect x="0.5" width="67" height="67" rx="33.5" fill="#00A896"/>
<path fill-rule="evenodd" clip-rule="evenodd" d="M48.6714 23.2035C49.0819 23.6141 49.3125 24.1709 49.3125 24.7515C49.3125 25.3321 49.0819 25.8888 48.6714 26.2994L31.1558 43.8151C30.7452 44.2255 30.1884 44.4561 29.6079 44.4561C29.0273 44.4561 28.4705 44.2255 28.0599 43.8151L19.3021 35.0573C18.9033 34.6443 18.6826 34.0913 18.6876 33.5172C18.6926 32.9431 18.9228 32.394 19.3288 31.988C19.7347 31.5821 20.2838 31.3518 20.8579 31.3468C21.432 31.3419 21.985 31.5625 22.398 31.9614L29.6079 39.1712L45.5755 23.2035C45.9861 22.7931 46.5429 22.5625 47.1235 22.5625C47.7041 22.5625 48.2609 22.7931 48.6714 23.2035Z" fill="white"/>
</svg>
