<svg width="14" height="14" viewBox="0 0 14 14" fill="none" xmlns="http://www.w3.org/2000/svg">
<path d="M13.9859 4.65799C13.9768 4.79458 13.9335 4.9266 13.8561 5.05408C13.7786 5.18156 13.6806 5.2453 13.5621 5.2453H9.05054C8.83179 5.2544 8.72698 5.09961 8.73609 4.78092L10.4587 3.05998C9.46524 2.18586 8.31227 1.7488 6.99981 1.7488C6.05192 1.7488 5.17466 1.98326 4.36805 2.45219C3.56143 2.92113 2.92342 3.55851 2.45403 4.36434C1.98465 5.17018 1.74995 6.04885 1.74995 7.00038C1.74995 7.9519 1.98465 8.8283 2.45403 9.62958C2.92342 10.4309 3.56143 11.066 4.36805 11.5349C5.17466 12.0038 6.05192 12.2383 6.99981 12.2383C7.80187 12.2383 8.55608 12.0676 9.26244 11.7261C9.70557 11.5119 10.1066 11.2466 10.4654 10.9303C10.8234 10.6146 11.3607 10.5472 11.7368 10.8411C12.1237 11.1435 12.1913 11.7094 11.8366 12.0492C11.3099 12.5538 10.7093 12.9697 10.0349 13.2968C9.08699 13.7566 8.0753 13.9865 6.99981 13.9865C6.05192 13.9865 5.14504 13.8022 4.27918 13.4334C3.41332 13.0646 2.66822 12.5684 2.04389 11.9446C1.41956 11.3209 0.922827 10.5765 0.553696 9.71153C0.184565 8.84651 0 7.94052 0 6.99355C0 6.04658 0.184565 5.14286 0.553696 4.28239C0.922827 3.42193 1.41956 2.67983 2.04389 2.05611C2.66822 1.43238 3.41332 0.936133 4.27918 0.567362C5.14504 0.19859 6.05192 0.0142045 6.99981 0.0142045C7.8839 0.0142045 8.72926 0.17355 9.53587 0.492242C10.3425 0.810933 11.0648 1.2571 11.7028 1.83075L13.5348 0.000546328C13.8538 -0.00855914 14.0087 0.0961537 13.9996 0.314685L13.9859 4.65799Z" fill="#4B4B7C"/>
</svg>
