<svg width="124" height="20" viewBox="0 0 124 20" fill="none" xmlns="http://www.w3.org/2000/svg">
<path d="M5.4 10.57C3.77333 10.57 2.96 11.07 2.96 12.07C2.96 12.43 3.06667 12.7167 3.28 12.93C3.49333 13.13 3.78 13.23 4.14 13.23C4.78 13.23 5.3 13.03 5.7 12.63C6.1 12.2167 6.3 11.67 6.3 10.99V10.75C6.3 10.63 6.24 10.57 6.12 10.57H5.4ZM3.16 15.53C2.24 15.53 1.48 15.2367 0.88 14.65C0.293333 14.05 0 13.2767 0 12.33C0 9.90332 1.8 8.68999 5.4 8.68999H6.12C6.24 8.68999 6.3 8.63666 6.3 8.52999V8.42999C6.3 7.92332 6.16667 7.55666 5.9 7.32999C5.64667 7.10332 5.21333 6.98999 4.6 6.98999C3.78667 6.98999 2.81333 7.11666 1.68 7.36999C1.4 7.42332 1.14667 7.36332 0.92 7.18999C0.706667 7.01666 0.6 6.78999 0.6 6.50999V6.46999C0.6 6.13666 0.7 5.83666 0.9 5.56999C1.11333 5.28999 1.38 5.12332 1.7 5.06999C2.87333 4.84332 3.88667 4.72999 4.74 4.72999C6.48667 4.72999 7.72 5.04332 8.44 5.66999C9.17333 6.29666 9.54 7.33666 9.54 8.78999V14.19C9.54 14.4967 9.42667 14.7633 9.2 14.99C8.97333 15.2167 8.70667 15.33 8.4 15.33H7.66C7.34 15.33 7.06667 15.2233 6.84 15.01C6.61333 14.7833 6.49333 14.51 6.48 14.19V13.97C6.48 13.9567 6.47333 13.95 6.46 13.95C6.43333 13.95 6.42 13.9567 6.42 13.97C5.58 15.01 4.49333 15.53 3.16 15.53Z" fill="#00A896"/>
<path d="M15.242 8.88999V11.37C15.242 11.81 15.442 12.2167 15.842 12.59C16.2554 12.95 16.722 13.13 17.242 13.13C17.8554 13.13 18.342 12.8833 18.702 12.39C19.062 11.8833 19.242 11.13 19.242 10.13C19.242 8.12999 18.5754 7.12999 17.242 7.12999C16.722 7.12999 16.2554 7.31666 15.842 7.68999C15.442 8.04999 15.242 8.44999 15.242 8.88999ZM13.222 19.73C12.9154 19.73 12.6487 19.6167 12.422 19.39C12.1954 19.1633 12.082 18.8967 12.082 18.59V6.06999C12.082 5.76332 12.1954 5.49666 12.422 5.26999C12.6487 5.04332 12.9154 4.92999 13.222 4.92999H14.022C14.342 4.92999 14.6154 5.04332 14.842 5.26999C15.0687 5.48332 15.1887 5.74999 15.202 6.06999V6.22999C15.202 6.24332 15.2087 6.24999 15.222 6.24999L15.262 6.20999C16.1154 5.22332 17.142 4.72999 18.342 4.72999C19.582 4.72999 20.5687 5.19666 21.302 6.12999C22.0487 7.06332 22.422 8.39666 22.422 10.13C22.422 11.81 22.0354 13.13 21.262 14.09C20.502 15.05 19.5287 15.53 18.342 15.53C17.2354 15.53 16.2487 15.1233 15.382 14.31C15.3687 14.2967 15.3554 14.29 15.342 14.29C15.3287 14.29 15.322 14.2967 15.322 14.31V18.59C15.322 18.8967 15.2087 19.1633 14.982 19.39C14.7554 19.6167 14.4887 19.73 14.182 19.73H13.222Z" fill="#00A896"/>
<path d="M25.0048 7.36999C24.6982 7.36999 24.4315 7.25666 24.2048 7.02999C23.9782 6.80332 23.8648 6.53666 23.8648 6.22999V6.06999C23.8648 5.76332 23.9782 5.49666 24.2048 5.26999C24.4315 5.04332 24.6982 4.92999 25.0048 4.92999H32.2448C32.5515 4.92999 32.8182 5.04332 33.0448 5.26999C33.2715 5.49666 33.3848 5.76332 33.3848 6.06999V6.22999C33.3848 6.53666 33.2715 6.80332 33.0448 7.02999C32.8182 7.25666 32.5515 7.36999 32.2448 7.36999H30.4648C30.3582 7.36999 30.3048 7.42999 30.3048 7.54999V14.19C30.3048 14.4967 30.1915 14.7633 29.9648 14.99C29.7382 15.2167 29.4715 15.33 29.1648 15.33H28.0848C27.7782 15.33 27.5115 15.2167 27.2848 14.99C27.0582 14.7633 26.9448 14.4967 26.9448 14.19V7.54999C26.9448 7.42999 26.8915 7.36999 26.7848 7.36999H25.0048Z" fill="#00A896"/>
<path d="M39.8819 6.90999C39.2819 6.90999 38.8285 7.06999 38.5219 7.38999C38.2152 7.69666 38.0219 8.22999 37.9419 8.98999C37.9419 9.09666 37.9885 9.14999 38.0819 9.14999H41.4619C41.5819 9.14999 41.6419 9.08999 41.6419 8.96999C41.5885 7.59666 41.0019 6.90999 39.8819 6.90999ZM40.3819 15.53C38.5685 15.53 37.1685 15.07 36.1819 14.15C35.2085 13.23 34.7219 11.89 34.7219 10.13C34.7219 8.38332 35.1552 7.04999 36.0219 6.12999C36.9019 5.19666 38.1685 4.72999 39.8219 4.72999C42.9952 4.72999 44.6085 6.46332 44.6619 9.92999C44.6619 10.25 44.5352 10.5233 44.2819 10.75C44.0419 10.9633 43.7619 11.07 43.4419 11.07H38.1019C37.9685 11.07 37.9152 11.13 37.9419 11.25C38.0485 11.9833 38.3285 12.51 38.7819 12.83C39.2485 13.1367 39.9419 13.29 40.8619 13.29C41.4619 13.29 42.1085 13.2033 42.8019 13.03C43.0819 12.9633 43.3285 13.0167 43.5419 13.19C43.7685 13.3633 43.8819 13.59 43.8819 13.87V13.91C43.8819 14.2433 43.7752 14.55 43.5619 14.83C43.3619 15.0967 43.1019 15.2567 42.7819 15.31C42.0085 15.4567 41.2085 15.53 40.3819 15.53ZM42.3619 0.269989C42.6685 0.269989 42.9285 0.383322 43.1419 0.609988C43.3685 0.823322 43.4819 1.08332 43.4819 1.38999V2.12999C43.4819 2.43666 43.3685 2.70332 43.1419 2.92999C42.9285 3.15666 42.6685 3.26999 42.3619 3.26999H41.6819C41.3752 3.26999 41.1085 3.15666 40.8819 2.92999C40.6685 2.70332 40.5619 2.43666 40.5619 2.12999V1.38999C40.5619 1.08332 40.6685 0.823322 40.8819 0.609988C41.1085 0.383322 41.3752 0.269989 41.6819 0.269989H42.3619ZM37.2819 0.269989H37.9619C38.2685 0.269989 38.5285 0.383322 38.7419 0.609988C38.9685 0.823322 39.0819 1.08332 39.0819 1.38999V2.12999C39.0819 2.43666 38.9685 2.70332 38.7419 2.92999C38.5285 3.15666 38.2685 3.26999 37.9619 3.26999H37.2819C36.9752 3.26999 36.7085 3.15666 36.4819 2.92999C36.2685 2.70332 36.1619 2.43666 36.1619 2.12999V1.38999C36.1619 1.08332 36.2685 0.823322 36.4819 0.609988C36.7085 0.383322 36.9752 0.269989 37.2819 0.269989Z" fill="#00A896"/>
<path d="M47.8309 15.33C47.5243 15.33 47.2576 15.2167 47.0309 14.99C46.8176 14.7633 46.7109 14.4967 46.7109 14.19V6.06999C46.7109 5.76332 46.8176 5.49666 47.0309 5.26999C47.2576 5.04332 47.5243 4.92999 47.8309 4.92999H48.8909C49.2243 4.92999 49.5376 5.02999 49.8309 5.22999C50.1243 5.41666 50.3443 5.66332 50.4909 5.96999L52.5509 10.69L52.5909 10.71L52.6109 10.69L54.6909 5.96999C54.8376 5.66332 55.0509 5.41666 55.3309 5.22999C55.6243 5.02999 55.9376 4.92999 56.2709 4.92999H57.3909C57.6976 4.92999 57.9576 5.04332 58.1709 5.26999C58.3976 5.49666 58.5109 5.76332 58.5109 6.06999V14.19C58.5109 14.4967 58.3976 14.7633 58.1709 14.99C57.9576 15.2167 57.6976 15.33 57.3909 15.33H56.4709C56.1643 15.33 55.8976 15.2167 55.6709 14.99C55.4576 14.7633 55.3509 14.4967 55.3509 14.19V9.30999L55.3309 9.28999L55.3109 9.30999L54.2109 11.91C54.0776 12.23 53.8643 12.4833 53.5709 12.67C53.2909 12.8567 52.9776 12.95 52.6309 12.95H52.5309C52.1843 12.95 51.8643 12.8567 51.5709 12.67C51.2909 12.4833 51.0843 12.23 50.9509 11.91L49.8509 9.30999L49.8309 9.28999L49.8109 9.30999V14.19C49.8109 14.4967 49.6976 14.7633 49.4709 14.99C49.2576 15.2167 48.9976 15.33 48.6909 15.33H47.8309Z" fill="#00A896"/>
<path d="M64.14 15.32C63.8333 15.32 63.5667 15.2067 63.34 14.98C63.1133 14.7533 63 14.4867 63 14.18V6.06C63 5.75333 63.1133 5.48667 63.34 5.26C63.5667 5.03333 63.8333 4.92 64.14 4.92H71.34C71.6467 4.92 71.9133 5.03333 72.14 5.26C72.3667 5.48667 72.48 5.75333 72.48 6.06V14.18C72.48 14.4867 72.3667 14.7533 72.14 14.98C71.9133 15.2067 71.6467 15.32 71.34 15.32H70.34C70.0333 15.32 69.7667 15.2067 69.54 14.98C69.3133 14.7533 69.2 14.4867 69.2 14.18V7.44C69.2 7.33333 69.1467 7.28 69.04 7.28H66.44C66.3333 7.28 66.28 7.33333 66.28 7.44V14.18C66.28 14.4867 66.1667 14.7533 65.94 14.98C65.7133 15.2067 65.4467 15.32 65.14 15.32H64.14Z" fill="#F3752B"/>
<path d="M76.2689 15.32C75.9622 15.32 75.6956 15.2067 75.4689 14.98C75.2422 14.7533 75.1289 14.4867 75.1289 14.18V6.06C75.1289 5.75333 75.2422 5.48667 75.4689 5.26C75.6956 5.03333 75.9622 4.92 76.2689 4.92H77.2089C77.5156 4.92 77.7822 5.03333 78.0089 5.26C78.2356 5.48667 78.3489 5.75333 78.3489 6.06V10.9H78.3889L80.8489 5.94C81.1822 5.26 81.7289 4.92 82.4889 4.92H83.4689C83.7756 4.92 84.0422 5.03333 84.2689 5.26C84.4956 5.48667 84.6089 5.75333 84.6089 6.06V14.18C84.6089 14.4867 84.4956 14.7533 84.2689 14.98C84.0422 15.2067 83.7756 15.32 83.4689 15.32H82.5289C82.2222 15.32 81.9556 15.2067 81.7289 14.98C81.5022 14.7533 81.3889 14.4867 81.3889 14.18V9.34H81.3489L78.8889 14.3C78.5556 14.98 78.0089 15.32 77.2489 15.32H76.2689Z" fill="#F3752B"/>
<path d="M88.3978 15.32C88.0911 15.32 87.8245 15.2067 87.5978 14.98C87.3711 14.7533 87.2578 14.4867 87.2578 14.18V6.06C87.2578 5.75333 87.3711 5.48667 87.5978 5.26C87.8245 5.03333 88.0911 4.92 88.3978 4.92H89.3978C89.7045 4.92 89.9645 5.03333 90.1778 5.26C90.4045 5.48667 90.5178 5.75333 90.5178 6.06V12.94C90.5178 13.0467 90.5778 13.1 90.6978 13.1H93.2778C93.3978 13.1 93.4578 13.0467 93.4578 12.94V6.06C93.4578 5.75333 93.5711 5.48667 93.7978 5.26C94.0245 5.03333 94.2911 4.92 94.5978 4.92H95.5978C95.9045 4.92 96.1645 5.03333 96.3778 5.26C96.6045 5.48667 96.7178 5.75333 96.7178 6.06V12.94C96.7178 13.0467 96.7778 13.1 96.8978 13.1H97.6578C97.9645 13.1 98.2312 13.2133 98.4578 13.44C98.6845 13.6667 98.7978 13.9333 98.7978 14.24V16.58C98.7978 16.8867 98.6845 17.1533 98.4578 17.38C98.2312 17.6067 97.9645 17.72 97.6578 17.72H97.0578C96.7511 17.72 96.4845 17.6067 96.2578 17.38C96.0311 17.1533 95.9178 16.8867 95.9178 16.58V15.5C95.9178 15.38 95.8645 15.32 95.7578 15.32H88.3978Z" fill="#F3752B"/>
<path d="M101.777 15.32C101.47 15.32 101.203 15.2067 100.977 14.98C100.75 14.7533 100.637 14.4867 100.637 14.18V6.06C100.637 5.75333 100.75 5.48667 100.977 5.26C101.203 5.03333 101.47 4.92 101.777 4.92H102.777C103.083 4.92 103.343 5.03333 103.557 5.26C103.783 5.48667 103.897 5.75333 103.897 6.06V12.94C103.897 13.0467 103.957 13.1 104.077 13.1H106.657C106.777 13.1 106.837 13.0467 106.837 12.94V6.06C106.837 5.75333 106.95 5.48667 107.177 5.26C107.403 5.03333 107.67 4.92 107.977 4.92H108.977C109.283 4.92 109.543 5.03333 109.757 5.26C109.983 5.48667 110.097 5.75333 110.097 6.06V12.94C110.097 13.0467 110.157 13.1 110.277 13.1H111.037C111.343 13.1 111.61 13.2133 111.837 13.44C112.063 13.6667 112.177 13.9333 112.177 14.24V16.58C112.177 16.8867 112.063 17.1533 111.837 17.38C111.61 17.6067 111.343 17.72 111.037 17.72H110.437C110.13 17.72 109.863 17.6067 109.637 17.38C109.41 17.1533 109.297 16.8867 109.297 16.58V15.5C109.297 15.38 109.243 15.32 109.137 15.32H101.777Z" fill="#F3752B"/>
<path d="M118.916 10.56C117.289 10.56 116.476 11.06 116.476 12.06C116.476 12.42 116.582 12.7067 116.796 12.92C117.009 13.12 117.296 13.22 117.656 13.22C118.296 13.22 118.816 13.02 119.216 12.62C119.616 12.2067 119.816 11.66 119.816 10.98V10.74C119.816 10.62 119.756 10.56 119.636 10.56H118.916ZM116.676 15.52C115.756 15.52 114.996 15.2267 114.396 14.64C113.809 14.04 113.516 13.2667 113.516 12.32C113.516 9.89333 115.316 8.68 118.916 8.68H119.636C119.756 8.68 119.816 8.62667 119.816 8.52V8.42C119.816 7.91333 119.682 7.54667 119.416 7.32C119.162 7.09333 118.729 6.98 118.116 6.98C117.302 6.98 116.329 7.10667 115.196 7.36C114.916 7.41333 114.662 7.35333 114.436 7.18C114.222 7.00667 114.116 6.78 114.116 6.5V6.46C114.116 6.12667 114.216 5.82667 114.416 5.56C114.629 5.28 114.896 5.11333 115.216 5.06C116.389 4.83333 117.402 4.72 118.256 4.72C120.002 4.72 121.236 5.03333 121.956 5.66C122.689 6.28667 123.056 7.32667 123.056 8.78V14.18C123.056 14.4867 122.942 14.7533 122.716 14.98C122.489 15.2067 122.222 15.32 121.916 15.32H121.176C120.856 15.32 120.582 15.2133 120.356 15C120.129 14.7733 120.009 14.5 119.996 14.18V13.96C119.996 13.9467 119.989 13.94 119.976 13.94C119.949 13.94 119.936 13.9467 119.936 13.96C119.096 15 118.009 15.52 116.676 15.52Z" fill="#F3752B"/>
</svg>
